<?xml version="1.0" encoding="iso-8859-1"?>
<!-- Generator: Adobe Illustrator 19.0.0, SVG Export Plug-In . SVG Version: 6.00 Build 0)  -->
<svg version="1.1" id="Layer_1" xmlns="http://www.w3.org/2000/svg" xmlns:xlink="http://www.w3.org/1999/xlink" x="0px" y="0px"
	 viewBox="0 0 512 512" style="enable-background:new 0 0 512 512;" xml:space="preserve">
<g>
	<g>
		<g>
			<path d="M187.733,392.533c-9.421,0-17.067,7.646-17.067,17.067c0,9.421,7.646,17.067,17.067,17.067
				c9.421,0,17.067-7.646,17.067-17.067C204.8,400.179,197.154,392.533,187.733,392.533z"/>
			<path d="M409.6,392.533c-9.421,0-17.067,7.646-17.067,17.067c0,9.421,7.646,17.067,17.067,17.067
				c9.421,0,17.067-7.646,17.067-17.067C426.667,400.179,419.021,392.533,409.6,392.533z"/>
			<path d="M256,247.467H136.533c-4.71,0-8.533,3.823-8.533,8.533c0,4.71,3.823,8.533,8.533,8.533H256
				c4.71,0,8.533-3.823,8.533-8.533C264.533,251.29,260.71,247.467,256,247.467z"/>
			<path d="M503.902,315.733H386.304c-15.386,0-27.904-12.518-27.904-27.904v-40.363c0-4.71,3.823-8.533,8.533-8.533
				s8.533,3.823,8.533,8.533v40.363c0,5.973,4.864,10.837,10.837,10.837h81.161l-20.753-83.012
				c-2.85-11.409-13.065-19.388-24.841-19.388h-80.538v-25.6c0-9.412-7.654-17.067-17.067-17.067H187.298
				c0.256-2.816,0.435-5.649,0.435-8.533c0-51.755-42.112-93.867-93.867-93.867C42.112,51.2,0,93.312,0,145.067
				c0,48.879,37.564,89.105,85.333,93.431v60.169v102.4c0,9.412,7.654,17.067,17.067,17.067h34.901
				c4.087,24.175,25.114,42.667,50.432,42.667c25.318,0,46.345-18.492,50.432-42.667h121.003
				c4.087,24.175,25.114,42.667,50.432,42.667c25.318,0,46.345-18.492,50.432-42.667h34.901c9.412,0,17.067-7.654,17.067-17.067
				v-71.023C512,324.062,508.834,318.814,503.902,315.733z M92.433,192.469c-1.417,2.125-3.721,3.507-6.255,3.755
				c-0.29,0.034-0.563,0.043-0.845,0.043c-2.253,0-4.429-0.887-6.033-2.5l-34.133-34.133c-3.337-3.337-3.337-8.73,0-12.066
				c3.337-3.336,8.73-3.336,12.066,0l26.778,26.769l45.423-68.139c2.62-3.917,7.902-4.992,11.836-2.364
				c3.917,2.611,4.975,7.91,2.364,11.836L92.433,192.469z M187.733,443.733c-18.825,0-34.133-15.309-34.133-34.133
				c0-18.825,15.309-34.133,34.133-34.133s34.133,15.309,34.133,34.133C221.867,428.425,206.558,443.733,187.733,443.733z
				 M324.267,204.8v8.559c0,42.334-34.44,76.774-76.774,76.774H102.4v-51.593c0.171-0.017,0.333-0.051,0.503-0.068
				c0.845-0.077,1.673-0.222,2.509-0.324c1.929-0.239,3.849-0.521,5.751-0.879c1.178-0.222,2.338-0.469,3.499-0.734
				c1.527-0.35,3.038-0.751,4.531-1.169c1.237-0.35,2.475-0.683,3.686-1.075c1.545-0.503,3.055-1.092,4.565-1.673
				c2.099-0.811,4.156-1.69,6.178-2.645c1.135-0.529,2.27-1.05,3.371-1.621c1.314-0.683,2.586-1.408,3.857-2.15
				c1.075-0.623,2.133-1.271,3.174-1.929c1.195-0.759,2.389-1.519,3.541-2.33c1.246-0.87,2.449-1.801,3.652-2.731
				c1.186-0.922,2.364-1.843,3.499-2.807c1.169-0.998,2.313-2.022,3.43-3.072h114.918c4.71,0,8.533-3.823,8.533-8.533
				s-3.823-8.533-8.533-8.533H172.51c1.348-2.057,2.603-4.181,3.797-6.357c0.128-0.239,0.239-0.486,0.367-0.734
				c1.178-2.202,2.27-4.471,3.277-6.784c0.29-0.674,0.563-1.357,0.845-2.048c0.802-1.963,1.536-3.968,2.202-6.007
				c0.247-0.742,0.503-1.485,0.725-2.236c0.145-0.478,0.333-0.947,0.469-1.434h140.075V204.8z M366.933,349.867
				c-4.71,0-8.533-3.823-8.533-8.533s3.823-8.533,8.533-8.533H384c4.71,0,8.533,3.823,8.533,8.533s-3.823,8.533-8.533,8.533H366.933
				z M409.6,443.733c-18.825,0-34.133-15.309-34.133-34.133c0-18.825,15.309-34.133,34.133-34.133
				c18.825,0,34.133,15.309,34.133,34.133C443.733,428.425,428.425,443.733,409.6,443.733z"/>
		</g>
	</g>
</g>
<g>
</g>
<g>
</g>
<g>
</g>
<g>
</g>
<g>
</g>
<g>
</g>
<g>
</g>
<g>
</g>
<g>
</g>
<g>
</g>
<g>
</g>
<g>
</g>
<g>
</g>
<g>
</g>
<g>
</g>
</svg>
