<?xml version="1.0" encoding="iso-8859-1"?>
<!-- Generator: Adobe Illustrator 19.0.0, SVG Export Plug-In . SVG Version: 6.00 Build 0)  -->
<svg version="1.1" id="Layer_1" xmlns="http://www.w3.org/2000/svg" xmlns:xlink="http://www.w3.org/1999/xlink" x="0px" y="0px"
	 viewBox="0 0 472.62 472.62" style="enable-background:new 0 0 472.62 472.62;" xml:space="preserve">
<g>
	<g>
		<path d="M367.315,269.902c0,0-17.756,24.232-35.239,42.042l106.677,106.681c18.501-23.055,32.53-44.755,32.53-44.755
			L367.315,269.902z"/>
	</g>
</g>
<g>
	<g>
		<path d="M317.382,325.018c-3.92,2.841-7.537,4.842-10.503,5.322c-69.403,11.208-175.81-95.199-164.601-164.602
			c0.479-2.966,2.478-6.582,5.32-10.502L38.901,46.538C18.162,64.831,0.001,85.11,0,100.08
			c0,131.712,240.825,372.538,372.536,372.538c14.969-0.003,35.248-18.163,53.539-38.9L317.382,325.018z"/>
	</g>
</g>
<g>
	<g>
		<path d="M98.745,1.335c0,0-21.7,14.028-44.755,32.529l106.681,106.679c17.811-17.485,42.042-35.239,42.042-35.239L98.745,1.335z"
			/>
	</g>
</g>
<g>
	<g>
		<polygon points="472.62,13.886 458.736,0.002 383.231,75.505 307.726,0.002 293.842,13.886 369.347,89.389 293.842,164.891 
			307.726,178.775 383.231,103.273 458.736,178.775 472.62,164.891 397.115,89.389 		"/>
	</g>
</g>
<g>
</g>
<g>
</g>
<g>
</g>
<g>
</g>
<g>
</g>
<g>
</g>
<g>
</g>
<g>
</g>
<g>
</g>
<g>
</g>
<g>
</g>
<g>
</g>
<g>
</g>
<g>
</g>
<g>
</g>
</svg>
