<?xml version="1.0" encoding="iso-8859-1"?>
<!-- Generator: Adobe Illustrator 19.0.0, SVG Export Plug-In . SVG Version: 6.00 Build 0)  -->
<svg version="1.1" id="Layer_1" xmlns="http://www.w3.org/2000/svg" xmlns:xlink="http://www.w3.org/1999/xlink" x="0px" y="0px"
	 viewBox="0 0 512 512" style="enable-background:new 0 0 512 512;" xml:space="preserve">
<g>
	<g>
		<path d="M222.609,445.141H50.087c-9.206,0-16.696-7.49-16.696-16.696V83.402c0-9.206,7.49-16.696,16.696-16.696h131.725
			l-4.965,4.965c-6.52,6.52-6.52,17.091,0,23.611c3.26,3.26,7.533,4.891,11.805,4.891s8.546-1.63,11.805-4.891L231.8,63.94
			c10.135-6.705,9.98-21.629-0.385-28.091L200.458,4.891c-6.519-6.52-17.091-6.52-23.611,0s-6.52,17.091,0,23.611l4.815,4.815
			H50.087C22.469,33.317,0,55.786,0,83.403v345.043c0,27.618,22.469,50.087,50.087,50.087h172.522
			c9.22,0,16.696-7.475,16.696-16.696S231.829,445.141,222.609,445.141z"/>
	</g>
</g>
<g>
	<g>
		<path d="M461.913,33.315H289.391c-9.22,0-16.696,7.475-16.696,16.696s7.475,16.696,16.696,16.696h172.522
			c9.206,0,16.696,7.49,16.696,16.696v345.043c0,9.206-7.49,16.696-16.696,16.696H329.208l4.815-4.815
			c6.52-6.52,6.52-17.091,0-23.611c-6.519-6.52-17.091-6.52-23.611,0l-33.391,33.391c-6.52,6.52-6.52,17.091,0,23.611l33.391,33.391
			c6.519,6.52,17.091,6.521,23.611,0c6.52-6.52,6.52-17.091,0-23.611l-4.965-4.965h132.855c27.618,0,50.087-22.469,50.087-50.087
			V83.402C512,55.784,489.532,33.315,461.913,33.315z"/>
	</g>
</g>
<g>
	<g>
		<path d="M339.478,139.055c-16.643,0-150.591,0-166.957,0c-18.412,0-33.391,14.979-33.391,33.391v166.957
			c0,18.412,14.979,33.391,33.391,33.391h166.957c18.412,0,33.391-14.979,33.391-33.391V172.446
			C372.87,154.034,357.89,139.055,339.478,139.055z M239.304,172.446h33.391v43.172l-4.891-4.89c-6.519-6.52-17.091-6.521-23.611,0
			l-4.89,4.89V172.446z M339.478,339.403H172.522V172.447h33.391v83.478c0,14.818,17.996,22.315,28.501,11.805L256,246.145
			l21.586,21.585c10.429,10.433,28.501,3.157,28.501-11.805v-83.478h33.391l0.021,166.955
			C339.499,339.402,339.493,339.403,339.478,339.403z"/>
	</g>
</g>
<g>
</g>
<g>
</g>
<g>
</g>
<g>
</g>
<g>
</g>
<g>
</g>
<g>
</g>
<g>
</g>
<g>
</g>
<g>
</g>
<g>
</g>
<g>
</g>
<g>
</g>
<g>
</g>
<g>
</g>
</svg>
