<?xml version="1.0" encoding="iso-8859-1"?>
<!-- Generator: Adobe Illustrator 18.0.0, SVG Export Plug-In . SVG Version: 6.00 Build 0)  -->
<!DOCTYPE svg PUBLIC "-//W3C//DTD SVG 1.1//EN" "http://www.w3.org/Graphics/SVG/1.1/DTD/svg11.dtd">
<svg version="1.1" id="Capa_1" xmlns="http://www.w3.org/2000/svg" xmlns:xlink="http://www.w3.org/1999/xlink" x="0px" y="0px"
	 viewBox="0 0 301.153 301.153" style="enable-background:new 0 0 301.153 301.153;" xml:space="preserve">
<g>
	<path d="M224.124,112.97c-4.059,7.329-10.279,13.442-18.013,17.232c-14.632,7.17-31.572,4.938-43.707-4.47l-18.799-14.574H39.159
		c-15.96,0-28.944,12.984-28.944,28.944v132.106c0,15.96,12.984,28.944,28.944,28.944h174.889c15.96,0,28.944-12.984,28.944-28.944
		V140.103C242.992,127.685,235.13,117.071,224.124,112.97z M138.12,267.989c-8.284,0-15-6.716-15-15s6.716-15,15-15
		c8.284,0,15,6.716,15,15S146.404,267.989,138.12,267.989z M198.033,267.989c-8.284,0-15-6.716-15-15s6.716-15,15-15
		c8.439,0,15,6.914,15,15C213.033,261.077,206.47,267.989,198.033,267.989z"/>
	<path d="M229.359,30.963c-9.357-4.079-19.438-6.804-30-7.923V11.517c0-4.396-2.502-8.408-6.449-10.342
		c-3.939-1.931-8.644-1.458-12.125,1.24l-52.5,40.702c-2.814,2.182-4.461,5.542-4.461,9.103c0,3.561,1.647,6.921,4.461,9.102
		l52.5,40.702c3.479,2.697,8.183,3.172,12.125,1.24c3.947-1.934,6.449-5.947,6.449-10.342v-9.564
		c10.563,1.119,20.643,3.847,30,7.926c20.135,8.779,36.907,23.829,47.833,42.694c1.615,2.788,4.866,4.189,8,3.441
		c3.134-0.748,5.405-3.465,5.584-6.682C293.227,86.695,267.638,47.651,229.359,30.963z"/>
</g>
<g>
</g>
<g>
</g>
<g>
</g>
<g>
</g>
<g>
</g>
<g>
</g>
<g>
</g>
<g>
</g>
<g>
</g>
<g>
</g>
<g>
</g>
<g>
</g>
<g>
</g>
<g>
</g>
<g>
</g>
</svg>
